<svg id="Layer_1" data-name="Layer 1" xmlns="http://www.w3.org/2000/svg" viewBox="0 0 125.5 43"><defs><style>.cls-1{fill:#231f20;}</style></defs><path class="cls-1" d="M96.9,93.9q9.6,0,14.7,3.3c3.5,2.3,5.2,5.8,5.2,10.6a14.1,14.1,0,0,1-1.4,6.4,10.6,10.6,0,0,1-4,4.4,18.1,18.1,0,0,1-6.3,2.5,44.2,44.2,0,0,1-8.6.8h-4v15h-8v-42a37.4,37.4,0,0,1,6.2-.8C93,93.9,95,93.9,96.9,93.9Zm-.7,6.7a31.8,31.8,0,0,0-4.7.2v14.1h3.7c3.6,0,6.4-.5,8.3-1.5s3-3,3-5.8a6.8,6.8,0,0,0-.8-3.4,5.8,5.8,0,0,0-2.2-2.2,10.1,10.1,0,0,0-3.2-1.1A26.3,26.3,0,0,0,96.2,100.6Z" transform="translate(-84.5 -93.9)"/><path class="cls-1" d="M130.6,94.9a56.6,56.6,0,0,1,2.9,5.6c1.1,2.2,2.3,4.6,3.4,7l3.3,7.5c1.2,2.5,2.2,4.8,3.1,7,.9-2.2,1.9-4.5,3-7s2.2-5,3.4-7.5,2.2-4.8,3.3-7,2.1-4.1,3-5.6h6.9c.3,3.1.7,6.3,1,9.8s.6,7,.9,10.6.5,7.2.7,10.9.5,7.2.6,10.7h-6.3c-.2-5.3-.4-10.7-.6-16.3s-.7-10.9-1.1-16.1c-.5,1-1.1,2.2-1.7,3.6s-1.4,2.9-2.1,4.5-1.5,3.3-2.3,5-1.5,3.5-2.2,5.1l-2,4.6-1.5,3.6h-6.2l-1.5-3.7c-.7-1.4-1.3-2.9-2-4.6s-1.5-3.3-2.3-5-1.5-3.4-2.2-5-1.4-3.2-2.1-4.6-1.2-2.6-1.7-3.5c-.5,5.2-.8,10.6-1.1,16.1s-.4,11-.6,16.3h-6.4q.3-5.2.6-10.8c.3-3.7.5-7.4.8-11.1s.5-7.2.9-10.6.6-6.6,1-9.5Z" transform="translate(-84.5 -93.9)"/><path class="cls-1" d="M202.4,135.9c-.5-1.7-1.1-3.3-1.7-5s-1.2-3.3-1.8-5h-18c-.6,1.7-1.1,3.4-1.7,5l-1.8,5h-7.3c1.5-4.4,3-8.4,4.4-12.1s2.7-7.3,4-10.6l4-9.4c1.3-3,2.6-6,4-8.9h7.1c1.4,2.9,2.7,5.9,4,8.9l4,9.4c1.3,3.3,2.6,6.8,4,10.6s2.9,7.7,4.4,12.1Zm-12.5-33.6c-.9,2.1-2,4.7-3.1,7.7s-2.4,6.3-3.7,9.9h13.6c-1.3-3.6-2.5-6.9-3.7-9.9S190.8,104.3,189.9,102.3Z" transform="translate(-84.5 -93.9)"/><polyline class="cls-1" points="8 43 35.7 43 42.1 43 75.3 43 85.6 42 92.9 42 117.9 42 125.5 42"/></svg>